<?xml version="1.0" encoding="UTF-8" standalone="no"?>
<!-- Created with Inkscape (http://www.inkscape.org/) -->

<svg
   width="24"
   height="24"
   viewBox="0 0 6.3499999 6.35"
   version="1.1"
   id="svg1"
   xml:space="preserve"
   xmlns="http://www.w3.org/2000/svg"
   xmlns:svg="http://www.w3.org/2000/svg"><defs
     id="defs1" /><g
     id="vector"><path
       style="fill:#FFFFFF;stroke-width:0.0411329"
       d="M 3.266306,6.3409134 C 2.7642282,6.2618706 2.4153049,6.0069884 2.3710711,5.7247066 2.3174102,5.3822647 2.6420909,5.3082899 2.793073,5.4523195 2.840727,5.4977805 2.841415,5.5058055 2.803956,5.5792785 2.717348,5.7491554 2.817968,6.2581115 3.602049,6.2602571 3.9012258,6.2610745 4.124354,6.1985211 4.3198419,6.0590242 4.6614061,5.8152896 4.6590116,5.439992 4.315034,5.3054754 4.1948165,5.2584631 4.0273518,5.2315922 3.4859625,5.1724448 2.2462728,5.0659761 2.7520583,4.4233806 3.0028255,4.2994459 L 3.1099529,4.2465003 C 2.8500023,4.116436 2.7189168,3.8590058 2.7023803,3.9092299 2.6369702,4.1657846 2.5220891,4.3986506 2.3895929,4.6253287 2.1659222,4.9701662 1.7721515,5.2237639 1.5596329,5.2237639 c -0.055505,0 -0.025663,-0.020324 0.082232,-0.056 C 1.8832287,5.0879535 2.1246341,4.8486155 2.2535243,4.5613433 2.3061728,4.444 2.3741294,4.2240193 2.4052619,4.0701568 2.4701702,3.7493684 2.4741842,3.6801169 2.480728,2.7681539 l 0.00632,-0.8811902 -0.2583414,-0.00397 -0.2583413,-0.00397 v -0.03627 -0.036277 l 0.2571751,-0.00396 0.2571752,-0.00396 v -0.252853 c 0,-0.62781788 0.122586,-0.9982508 0.4221216,-1.27557481 C 3.0831655,0.1068762 3.3487283,-3.1761393e-4 3.5760403,6.8560645e-6 4.2426148,9.5765524e-4 4.3338885,0.57435963 4.0919279,0.8077636 3.8606933,1.0307841 3.5963308,0.8887732 3.5362194,0.80031133 3.4143249,0.62092717 3.6607221,0.79828136 3.7828894,0.58980368 3.8786777,0.42634179 3.8228418,0.2303532 3.6550609,0.14111653 3.5366755,0.07815146 3.1043096,0.04411964 2.9430154,0.53453978 2.8846995,0.71185086 2.8767358,0.80566989 2.8766198,1.3167367 l -1.153e-4,0.4824836 h 0.2757046 0.275705 v 0.043532 0.043532 H 3.1522134 2.8765087 V 2.3885956 2.890906 l 0.057582,-0.052021 c 0.2149339,-0.1941809 0.525364,-0.2975491 0.8420861,-0.2804022 0.5882076,0.031845 0.9722223,0.3871545 0.9722223,0.8995488 0,0.2748272 -0.1082376,0.4977614 -0.326743,0.6729833 C 4.1285013,4.3661 3.6848686,4.4422201 3.3105487,4.3216622 3.2259239,4.2944072 3.2040887,4.2923276 3.1554562,4.3069001 3.0753283,4.3309051 2.9871555,4.3990167 2.958773,4.4588275 2.9021565,4.578139 2.9447383,4.6903379 3.0698719,4.7515603 3.1756093,4.8032923 3.2894021,4.8241483 3.747157,4.8756918 4.2109978,4.9279198 4.3687618,4.9589738 4.508973,5.0256426 4.7415736,5.1362416 4.8530885,5.3481093 4.8077609,5.5933094 4.7600818,5.851228 4.5767299,6.0615858 4.2735695,6.2061811 4.0526617,6.3115455 3.9013191,6.3437772 3.6020491,6.3491956 3.4623829,6.35174 3.3112984,6.3479944 3.266306,6.3409099 Z M 3.9075881,4.2478862 C 4.0720327,4.16704 4.1817929,4.0319524 4.2505727,3.8257575 4.3071524,3.6561381 4.3129899,3.2920079 4.2505271,3.1140398 4.0130001,2.4373078 3.2754899,2.5665852 3.1007438,3.1559791 2.9009076,3.8952477 3.4224532,4.4864287 3.907588,4.2478844 Z"
       id="fg" /></g></svg>
